<mxfile host="app.diagrams.net" modified="2024-07-11T02:35:04.711Z" agent="Mozilla/5.0 (Windows NT 10.0; Win64; x64) AppleWebKit/537.36 (KHTML, like Gecko) Chrome/126.0.0.0 Safari/537.36" etag="Zw4bc1s31dGq4tAEmN1-" version="24.6.4" type="device">
  <diagram name="Page-1" id="VhRkKBBOxfRCtBx2qHGt">
    <mxGraphModel dx="1644" dy="462" grid="1" gridSize="10" guides="1" tooltips="1" connect="1" arrows="1" fold="1" page="1" pageScale="1" pageWidth="850" pageHeight="1100" math="0" shadow="0">
      <root>
        <mxCell id="0" />
        <mxCell id="1" parent="0" />
        <mxCell id="byAdHSO-YkekHcHn3zpb-4" value="&lt;b&gt;AWS Account&lt;/b&gt;" style="points=[[0,0],[0.25,0],[0.5,0],[0.75,0],[1,0],[1,0.25],[1,0.5],[1,0.75],[1,1],[0.75,1],[0.5,1],[0.25,1],[0,1],[0,0.75],[0,0.5],[0,0.25]];outlineConnect=0;html=1;whiteSpace=wrap;fontSize=12;fontStyle=0;container=1;pointerEvents=0;collapsible=0;recursiveResize=0;shape=mxgraph.aws4.group;grIcon=mxgraph.aws4.group_account;fillColor=#f5f5f5;verticalAlign=top;align=left;spacingLeft=30;dashed=0;gradientColor=#b3b3b3;strokeColor=#666666;" parent="1" vertex="1">
          <mxGeometry x="135" y="70" width="665" height="390" as="geometry" />
        </mxCell>
        <mxCell id="i4tWGjphK10BlRA8H3oe-9" value="&lt;b&gt;Node&lt;/b&gt;" style="text;html=1;align=center;verticalAlign=middle;resizable=0;points=[];autosize=1;strokeColor=none;fillColor=none;" parent="byAdHSO-YkekHcHn3zpb-4" vertex="1">
          <mxGeometry x="505" y="85" width="50" height="30" as="geometry" />
        </mxCell>
        <mxCell id="i4tWGjphK10BlRA8H3oe-6" style="edgeStyle=orthogonalEdgeStyle;rounded=0;orthogonalLoop=1;jettySize=auto;html=1;" parent="1" source="i4tWGjphK10BlRA8H3oe-1" target="i4tWGjphK10BlRA8H3oe-3" edge="1">
          <mxGeometry relative="1" as="geometry">
            <Array as="points">
              <mxPoint x="560" y="250" />
              <mxPoint x="560" y="250" />
            </Array>
          </mxGeometry>
        </mxCell>
        <mxCell id="i4tWGjphK10BlRA8H3oe-1" value="" style="sketch=0;outlineConnect=0;fontColor=#232F3E;gradientColor=none;strokeColor=#ffffff;fillColor=#232F3E;dashed=0;verticalLabelPosition=middle;verticalAlign=bottom;align=center;html=1;whiteSpace=wrap;fontSize=10;fontStyle=1;spacing=3;shape=mxgraph.aws4.productIcon;prIcon=mxgraph.aws4.eks;" parent="1" vertex="1">
          <mxGeometry x="440" y="200" width="90" height="140" as="geometry" />
        </mxCell>
        <mxCell id="i4tWGjphK10BlRA8H3oe-2" value="" style="outlineConnect=0;dashed=0;verticalLabelPosition=bottom;verticalAlign=top;align=center;html=1;shape=mxgraph.aws3.ec2;fillColor=#F58534;gradientColor=none;" parent="1" vertex="1">
          <mxGeometry x="630" y="88" width="70" height="70" as="geometry" />
        </mxCell>
        <mxCell id="i4tWGjphK10BlRA8H3oe-3" value="" style="outlineConnect=0;dashed=0;verticalLabelPosition=bottom;verticalAlign=top;align=center;html=1;shape=mxgraph.aws3.ec2;fillColor=#F58534;gradientColor=none;" parent="1" vertex="1">
          <mxGeometry x="630" y="215" width="70" height="70" as="geometry" />
        </mxCell>
        <mxCell id="i4tWGjphK10BlRA8H3oe-4" value="" style="outlineConnect=0;dashed=0;verticalLabelPosition=bottom;verticalAlign=top;align=center;html=1;shape=mxgraph.aws3.ec2;fillColor=#F58534;gradientColor=none;" parent="1" vertex="1">
          <mxGeometry x="630" y="360" width="70" height="70" as="geometry" />
        </mxCell>
        <mxCell id="i4tWGjphK10BlRA8H3oe-5" style="edgeStyle=orthogonalEdgeStyle;rounded=0;orthogonalLoop=1;jettySize=auto;html=1;entryX=0;entryY=0.5;entryDx=0;entryDy=0;entryPerimeter=0;" parent="1" source="i4tWGjphK10BlRA8H3oe-1" target="i4tWGjphK10BlRA8H3oe-2" edge="1">
          <mxGeometry relative="1" as="geometry">
            <Array as="points">
              <mxPoint x="580" y="250" />
              <mxPoint x="580" y="123" />
            </Array>
          </mxGeometry>
        </mxCell>
        <mxCell id="i4tWGjphK10BlRA8H3oe-7" style="edgeStyle=orthogonalEdgeStyle;rounded=0;orthogonalLoop=1;jettySize=auto;html=1;entryX=0;entryY=0.5;entryDx=0;entryDy=0;entryPerimeter=0;" parent="1" source="i4tWGjphK10BlRA8H3oe-1" target="i4tWGjphK10BlRA8H3oe-4" edge="1">
          <mxGeometry relative="1" as="geometry">
            <Array as="points">
              <mxPoint x="580" y="250" />
              <mxPoint x="580" y="395" />
            </Array>
          </mxGeometry>
        </mxCell>
        <mxCell id="i4tWGjphK10BlRA8H3oe-8" value="&lt;b&gt;Control Plane&lt;/b&gt;" style="text;html=1;align=center;verticalAlign=middle;resizable=0;points=[];autosize=1;strokeColor=none;fillColor=none;" parent="1" vertex="1">
          <mxGeometry x="435" y="290" width="100" height="30" as="geometry" />
        </mxCell>
        <mxCell id="i4tWGjphK10BlRA8H3oe-10" value="&lt;b&gt;Node&lt;/b&gt;" style="text;html=1;align=center;verticalAlign=middle;resizable=0;points=[];autosize=1;strokeColor=none;fillColor=none;" parent="1" vertex="1">
          <mxGeometry x="640" y="290" width="50" height="30" as="geometry" />
        </mxCell>
        <mxCell id="i4tWGjphK10BlRA8H3oe-11" value="&lt;b&gt;Node&lt;/b&gt;" style="text;html=1;align=center;verticalAlign=middle;resizable=0;points=[];autosize=1;strokeColor=none;fillColor=none;" parent="1" vertex="1">
          <mxGeometry x="640" y="430" width="50" height="30" as="geometry" />
        </mxCell>
        <mxCell id="i4tWGjphK10BlRA8H3oe-12" value="&lt;b&gt;Nodes should run containers&lt;/b&gt;" style="text;html=1;align=center;verticalAlign=middle;resizable=0;points=[];autosize=1;strokeColor=none;fillColor=none;" parent="1" vertex="1">
          <mxGeometry x="590" y="185" width="190" height="30" as="geometry" />
        </mxCell>
        <mxCell id="byAdHSO-YkekHcHn3zpb-5" style="edgeStyle=orthogonalEdgeStyle;rounded=0;orthogonalLoop=1;jettySize=auto;html=1;" parent="1" source="i4tWGjphK10BlRA8H3oe-13" target="i4tWGjphK10BlRA8H3oe-17" edge="1">
          <mxGeometry relative="1" as="geometry" />
        </mxCell>
        <mxCell id="i4tWGjphK10BlRA8H3oe-13" value="" style="sketch=0;aspect=fixed;pointerEvents=1;shadow=0;dashed=0;html=1;strokeColor=none;labelPosition=center;verticalLabelPosition=bottom;verticalAlign=top;align=center;fillColor=#00188D;shape=mxgraph.azure.laptop" parent="1" vertex="1">
          <mxGeometry x="-80" y="200" width="183.33" height="110" as="geometry" />
        </mxCell>
        <mxCell id="i4tWGjphK10BlRA8H3oe-14" value="" style="shape=image;verticalLabelPosition=bottom;labelBackgroundColor=default;verticalAlign=top;aspect=fixed;imageAspect=0;image=data:image/png,iVBORw0KGgoAAAANSUhEUgAAAPcAAADwCAYAAADcifLrAAAAAXNSR0IArs4c6QAAAARnQU1BAACxjwv8YQUAAAAJcEhZcwAAFiUAABYlAUlSJPAAAEIESURBVHhe7b0HeJzHde/93953gUXvJEACYAHYO0WqUKKK1Zslq8uWFduJYidxbuwvyZPkybXvTWL7Rm6yo94tq8sqFEmx996JRvSOBXaxveE7512sSUokAIIoW+Znv1xgdwVg553/nDJnZmQDBAQCQcIhH3wUCAQJxiVbbke/Ey6XB16fH8FgcPBZgUAQa4xY3CzqHpsdGo0aFpMBSqWSnh2A8OoFE0WY+po/OIBOVxhH2wOosQXR3D+ARtcAenxBZOkUKLXIMStdifl5amQY5NCrZFDIZYM/IfHQarXSY4fdC68XUJIvPhAGbDbPyMTd1W2Dx+tDRloq5NRQQtCCicQbCKHT7kZ1mwdHWv3Y0e5FuycMv0wFmVqHsEoHP2TQUMeWywYgU8hgUcsx3RjC0kwlKjJVyDUpYSWxJ5rMo+I+3tCMpsZm9NudCAXC5FWHhhc3CztAb8xIS0EoFBp8ViAYf7hnegIDOHqmG9uqOrG7oQ/13UFUOYPw0evsPWp05EWaUqGlR5VGgyDkIN2TmQdZ7TBKzHLMTFFgplWBRVkKErkCKTo5tMrEkHlU3O+s/wBBfwAqlRZatYEGMRrIhhI3u+J99n7kZKULYQsmlDD1Src/hGP1fXh/TwPWnWzDiR43R4IAWeaICaZ/lCrq4WYYTBboLSnQ6E2Qq9TSyNBHXZaMGEjLKNADyzPlmJuhwIw0JQrMCli0JHJy2+NZ5lFxv/6nV2FJSUF6aiaMBgt9fvpcQ4n7TEMLsjPTIEuMQU4QJ4RJ2U5fCHWdLjzzwWGsO92NVm8Q0CgG33EB5EoSeAoMmbnQWrP5hwy+AFCILgmdKdWEsCBNgeW5KiyguLyIYnTDYFwej908Ku7Pdr8PqzUdVku6ZLmDNKpdVNxstZ0uD9JSzSLGFkwoPQ4PdlZ14YVNNdjZYIedwsIQW5gh1UfipPfoLBkw5hbTowUD7G1S3+Xey54Aw964hx5VNE6U6GW4KlOGW8tUKE5VQcNPxhlRcW8+uJ7CFBWUcjUGwnL4PIGLi7utvQtmkwEKhZgKF0wcLT1OvL2/GW/ubUJ9az/sZIGHF/ZZ2CVngacVzyJhn7Xe50JhvCR4TsCpyKvPM8qwhKz5FdlKzMlSSu66ilz/ePBYo+IuW1hOoXOYrLaONKuB1+W7uLjZJc/NzqCB78INJBCMJSEyrZ19bry5pxF/IHEfbOyLKJDndi5RZCqdAWnT5kGl1kA2xDQY9+x+/oeubNIIT6PNpJj8yiy55K6n6RUw0gggj2GVR8VdOn8OhRZyWCxW6LUG9PbaLy7u6toGFOZnC5dcMO74AiF02D349HArntl2Bifa+iV3WhL2pcL/mUYLc/506FPSIVdE6jGGw0kevIcuA719bbYMFelyVGQoMS1VAQsJ3EBXLMblUXEvW3MTNGoVUlMzoNPoYOu2DV1+KoQtGG+C5Eq29brx8cFm/POfTuJEqyNiqUcj7CicTPM6I1+PsIDFSOF2hhpQ09v/0DSAnx0L4ZmjfnxY5cX+Fh96XCF4AxQixKokBrQUhejg98jgdITg8QyRUGPLXZCXNfidQDA+VDX34e19jfjltnr0Of0IsxZHKMiLoaS425yRB332FIrBKag+J3M+EljA/Cf46WstWfJyvQzlZmBFngLzc9XIs9DPjBGilnvhihshk1EIQf8boBAnGAgMbbkFgvHkcG03Xtp+Bq/tbYLNNTbClrjMHxGdRpeTyP0B4IxzAFu7BvDzk0H8eJcHvz3gRKPNT15H7Jjx3EwzdKogwgEHgv4+hEP9QtyCiYX9RJc3iF0nO/DKljp8eKgFNTYPqYnkNBbCHkNU9Ofw5SXD3+0jL6MP2NgaxkvVQTx92IcXj3twoI1cdmcQ/uCleQdjTWFeOtSKIHkpLpgMchTmpwlxCyYOzojbXT4ca7DhxY3V+OP+FlR1uyOiji1dXxDSDMIDMpxyyPB8VRg/P+jFyye8WN/gw8kuP/o8HJcP/HlOfSJRq9XQ6XTIyspCcXExCgsLhbgFEwNbbKc3gCP1JOwNVXhzbzPa/WRp1PFVOMICz6CQO1UDNAUU+F0t8G/7g/g9WfJdTV402IPoJ1MfJIVPZD46QDG20WjElClTUFRUBLmco2+BYAJw+MLYdboLr26pxduH2uHVKS8vIz7J8F+eQeNSNgm9l8aot9qAv9wbxK8PePDBKQ9OtPvg5oB9grBarbBYLAiHw2hpacHhw4eFuAXjC7uodrJkn+5vxMvbz2B9rQ0OGVm1OHHFh4ITb1zOqqFLTZ/T6wc+6xjALykm/9lhP1484sPmOi/s5K7zWvTxpK2tDR6PR1opV1BQgNWrVwtxC8YPdk07HT68v7seb9G1tbYHrW5SQBxb7AvBSTc9fSQdPdrJWDf0A3u6BvBRfQivVwXwyik/djQF0O4IITROItdoNHC5XKitrcWhQ4fQ0NAg5rkF4wNXnTXY3Nh0ugcvf34Cp7o9cHJXY3M3zijVapjTRz/PPdZwgcz8dDkW5CgwK1OFMpMcRq0cGjL7l9sc0XnuRx99VHLHe3p6JNdcr9cLyy0Ye3jJZrPNhdd3ncFTr+/DvpZ+OLkEdAKEHYtwaev7zWH8zZ4AntzkxroaL2p6gnAMJt44dLlc2GL39vZKX3PmnAUuxC0Yc5p7nPjNplo8s6U+Uu7F67BjbA57ojErI8k3jw/48cEgfrjNgxcPe3Cg2Y9OUv/l6ptd8v7+frjdbvDS19TUVCFuwdjBrnh1ix0vbqnDFyfa0eui+JqtdZILm4km33jij6ME3tTxjYYg/t8xP14/5sXHpz2oswXh9o9e5uyic8bcYDBIOxMLcQvGhH5PACcae/HO9jp8dKgF9T1cdUYvCGGfBzeHnqw4OzQtLmBfVxifNgXxh+oA3jztx2d1XBATgC84uHXMCOF5bc6Uq1Qq6WveFk2IW3DZ9Lv9ONJgwx92NeANuqq73XCHyDwJYQ8JZ9jZH693A7u6B/BWTQAvn/Dh3SofdrUGUEuWnOsDuCmHQypaoYvheFtYbsFlE6Ced7Tehpc31+IXG2txyhOEh0UthH3JuMhYH3cAL1aH8DdbfPjNPjcOtQfR6w1TOw9d8RYVNltsrlbz+/1C3ILRwR3NT8LefLQFT//pJN7b1xLZt0iIekywB4HXWgfw+FYP/mm7C5vPeOH0BS4qcE6iscWOCluIWzAq2FrzIQFfHGjC7zbUYntTH+ys6XjYdCyOUJA77vEDW9rC+J+TAbxf5UeLIySduvJlWNhstdkdZ4GLmFtwybCweRPDL4624tltddhKLnmXn/xJlehKYwm3JsfkvFDFEQD2UUz+Rm0QH9f6UG8PwfslgbOYuR6NLbhCoZAucUcEI4ZdwpYechGPd+DNXY348EQX+jjbk6TFKROFTkGDKj3u6yVXvSqAXS0BaW6cl9BGYYvNwo4u/eRpMSFuwYjgbuTwBPDx/ib8fnMNPq3pidSIC1d8QtBSMxvo2u8EPmnw43C7Hy4fBeaDSBVpcrlUdmoymaS5biFuwYgIBMN4/MW9+D/ra3CiY3CDBZE8m1DYQcokK76tC9jQNoBGx+ALBLvlPM/NVpuFLSy3YFh8FNudaO3HP//xMHZXdaGz3wcP23FhsSccbnGucuPjkfZ2BbG5iY9DjMAuOcfcbMG9Xi9stmG2NhYkN/0ev7Rzyju76vH6zgb0uSnyi5aTCm1PGnywYbNzAHs7z69i4yw515ZznTmv7RbiFnwFTpw5Kb4+0tCLd/bU4w8769Hh8iPIhdHCFZ90jKRaX0iGBvfZe8HxNlttFrbT6YzE4IOvCQQSnDjjgwJONvbixc21eH1vE6rt3sjKLuGKxw50O/rPmQ7jzRoYLl5hq80IcQvOgy32wZou/O6TE9h8ugs9PnL9EmznlESArbf8HK+ck2l8RRHz3ILz6LJ7sOFIK/717aPYWN+HDm8Q0mSLMNgxB0dIgXMWlLDFZtiCc7ZcTIUJJLgYorGrH58dasFL285gQ03ksHsfi1oIO2bxnSNuTqZx3M2iTklJEeIWcHw9gI4+Nz4/3CrtTvrJ8Q6Atx0WVWcxz7mnGfE0GIub57d5rptddCHuJIYttsPtx7q9DfjdljpsaegDtCJxFo9IYiZxn5s1F+JOYngByHOfn8IvttWjqtczOH8thB2PsLhZ1Jwpt9vt6OjoEOJOVg6f6cHzX9TgtT1NOGPzwMsLQMQcdlzDJag8x83i5oo1Ie4kgkM03puLhf3Onka8s68ZJ0nYfl5dJCx2XMOrwthyRx95dZgQd5LA+vX4Q6hqtuO1bXV4l4RdxZsY8jpsYbHjHrbaDG+QKJZ8JhERix1GQ48Xz3x0DH/c2xypOuPkmSBhYGHzkk8+7ZMvIe4kwObwYvvxVvz2vUP4uKoHXQFRdZZocPFKdLknX8JyJwHddg/WH2vFc1vr8Gl1NzrJNQ9wfC088YRCKjeVy6VEWhQh7gSF57B7+73YfLQV7+1twqbqHjS6/AhxcYoQdsIRTaZxGarP55MuIe4EhHdN6SSLvfFkB17ddgZbT3ejl7fkEa54wsLlp7xJQ3TJJ6/rFnc7weC12F0ODz4+2IzvvH4Qn5zpRQ8/KYSd0HC2PLrck4XNQhd3PMGoae3Dq9vr8NP11XB5yFrzNJeY6kp4OObmeJvdcxY6X0LcCcTR+h68trMBb+xtRrPNgxBrWhSnJAUs7HMvRog7AeCjc0822PDH3Y14/1ALTnS6Ii9IteKRLwWJTVTU0Yy59PXga4I4xe0LoqbNgTfIFectkU6ysPmuiiWbSY8QdxzDlWc1LXY88+lJ/GJrA5rc/kg56aBbJkhuJkTcnKzlEyGd3gAcHv95F7uUYX6D4JLg0ya2HGnFsxuq8O7hdgQkqQtRC84iG+AtHC5AdW0DCvKyBr8bHf5giAQcRqsjgFMtLuzp8MDuCgCBAajIbcwwKlGWqcO0dDWK6Eoz66AUmd0h4d03XL4wNh5uwkf7m7Ct1oaGfh+k3eqFxZZQqtUwp+dBnz0FcpWKKzwGX0k8Gp6MaHThwoXSbixRpLh7vMTNpxCe6XLjQJMbe5o9qG51Yn8vWWs+YZysuIp+eYZBiWlpakxNV6EyT48VRWaUZuuhIddSLjrqV+Cqsz6nDztOd+P17bXYeaYX7R4aLMUJm+chxB0R95j3Cv75fjIvdV1efHbCjmd3d+J3u7vwRZMHDt7RTU2/Uq9EQKdAazCMLST8F4/249d7bHhjfzdOtDjhcPMJhoM/UCDhp7bqdnhwoLYbL3x2Al+c6hLCFgzJmPeMAFmXLmcIb+zswLN7u7Gzg1xGLf0avr5c18wuuIafB2p7/Hhuby/+8+MW7G90w3nu1o4CdDnc2HiwGb/+6Dg+q+tDH7ejELZgCMa0d3gplj7W6sE/flCPt0470OQhF3wkMTS74Eo5XBQ3bury4z83NOPlbU043dI3+Ibkpqm7n9zwM/jNljPY2e5CiAdEkZsQDMOYiZtXIP3peA9+sqEVG+pdaCZh+zgEGGkfpPdxRVUfufQHun14+bAdv93ejQ0nemF3B6R4M9ngmYS6NjueXl+DN/c240SnE3aOH4Wwhyb5usoFuWxxc4zdRzHyuup+vLivCx+dtktrhoPc/0bTB+kvclD/PWIL4L1TTry0twubT/ehsccNj//sYeOJDh/rc7ypD89tPYO39jfjWLsTLk6VC2FfHDYAdKmpjQr0Sqi5qS6cL04KLkvcQRJhnyeMbfVO/G6vDZ+f8USmZC63A/J/TvFkuz+Mj6qceHZ7J9Yds6Guyy25/okOD2KnWu34w54G/Nf6arQ7vJF8hag6uzgkahU9pOlUmJFpxBV5JmkXqXASenxRLkvcDm8YW+t9+MGnzdjZ7I78tLG0LNSZ3XR93ujBf2/pwVsHHDhjO3vgeKLC5aSv7qjH0xtqI08oqGGFxR4aMgQZWiXurMjG/75lFq6Zk4uASikdVJ+sjFrcZ7o9eO9AF579ogG2/gAGuO+NRwekHzmgkaMlEMZLx234l/Ut+PSIDf3eoOSFJQrsPXrpM2460oL/+uw03j7ShjBbal6HLXR9Yfj+U6gi94WwYooF37mqBA+tKkFpnkXU8xCjEvepNhfeOWjDCwe6sbeLN7SnVh7PxqRBgw+la3MFsbXBid/s6cKL2zpQ2+FCIEEmxPs9fuw62Y5nKcbeVN2NLid5KDxYik56YSRhh5GiUuD60nR866rpuHlhIcpJ2DoNO+iCEYub25ILKY63uPDuARv+eKwXe9u96CXzKa0bHm+kji6DzRPCF41uvLy/By/s7cb2GgfsLIQ4hb2Pzj43tp9ox0tf1GB9VRc6+POw6RHCvjDUaCZqm3KrDjfOysIjq4tx3Zw8TMuxwKAVwo4yInHzwg43uT71PV68SlaThXWIhD3hK5D4V5HIA/RwpDeAn23rwq+2tWFnnR29roBkxeMpORrdxHD7yQ48t74Kr+9oRB+FG8JiXwR2EOkGm6l9Zqfpce/8fDx1fTluXjIFqSaN1GyCs4xI3GyxaztdeGF7B1442It6P7nCk7mhPd9ELuRQy/FxrRv/tK4DfzrUg06HL27cdB6EXL4ANh5qxgsba/DxiS4gXReJsQVfhQdtGgwVwQGsyDbiL2+swOPXV6CiyBp5XfAVhu1JPC1ziOLc1/bb8PpJB/qpVw7EyhBJfwcnnWr6g/jZri48t60Tx1s9cMf4dFkgNIDO/gDe3lZPA2YDdrf1I6wX7uRF4ZwODdr5ZJ2fumIK/vr2CqyYkY5UA+86MvgewVcYVtzVHR58csqOj6sdaKd4d9TFKeMFCdxDI3p1XwDv0N/5/O4urDvZh1Y7O++xBy+qqe9y4a3N1Xh9TyMOtPfDzt6GmMO+MIPJ2sp8Cx5bOQX3rCjG3JJ0pJHQxfLgs/DGiLwqLLoybNhVYR6ygJtqnfi01kHi4ViQnozFoZJuMg86p+xBfHjajpf2deO9o32o7/ZIVjJWYGFXkZX+eH8T3thZh30tdvRx1Z3opF+FM43kgjNLScwPLCNhLynEzClWmHRqKESbDQmLfEhxN/f58WlNP450+siy0BOx7APx30bWr90fwic1DinR9t5BmzQf7/JN/m4vPMhUdbrw/r5GPL+5Bvu7PPDwC6KTng/fJhK2isx1ukaJ8hwTnlpTjsdWTUdJtkWy1qLFvkp0U0S+mGHFveWEDT12f6TBY1nY58J/p0qOM84g/m1dG37+WQsONfRLizAmC3Ye2p1h/Mt7x/DTT0+hykay5nXtopd+FbbY1GA5RjUeWZiPT566AjdXZsEgFYoLLkZU1OcypLg31vahi6xePMaDnPTzaOT4U50Lv93agff229DUSwPVBNPvCWBvVSe++9JObKvqIE+T4iKxDvursAEJhJGpU+LmWZn4++tL8eh1pRRba4ULPgLO3YWF4S2Oh+xluzv96KMGj0vXkf7kARqUuujv39riweuHevDmni4cICvu5qm8CYBP2Nx1qgOvf1GDPdVd6OOdU7gtRWc9H3bD6T5VpGpxz7w8PLRyKtbOzUNRpgkqrqsXXBJRKz5ky7V4wqD/xzdKGTqo4+xq8+KtIz14cV83dp/pR5fDj+A47q1l6/diGwn6td0N+OR4O1wcFghhfxW6NyYyOhUZBty9sAD3LCnCFeXZyEszCos9SqJZ8yHFbSH3UZUI7UudpJ8ejvQF8eyBXvzPjg5sq7GjkwTO20KNJZy4s7v82EGu+Cu7GvDGkTY0SevbqSFFXz0LNztdZmqXyjQD7l9WhAevLcW8aemwGNSR9whGzJdj7mHFfVOOFllqXhQ7tgKYFPizk5seok/8wel+PP1FO97d14uu/rG13l4S8roDjfjpe8fx6eH2yJNiZdf5cHfiuf1gGFdXZOFH91TgkevKkGnRQSnc8FHx5ZibGbIlF0w1IkVJXwzON8Y9LDAa4YLkjhxzBPGrA934wZ/OYNfpDsnaXs50GdeJN3c78faWGvz8g5M41e1GSOwl/lVCA1CTsCusOvzdmmn47jWlWDAtEzq1khws0VajJeqKR0XOlnxIcS8rMaI4VQMTZ8vjPfaOwv2H3XQS45n+ADbVOfGzrd0UF/ehoccj1dFfKr5gCKea+/AexdfP7WjAiV4PXAP0c0TMeBbucxRfp5OIryHX+8k1pRRfT8GcKVbJDRdNNTawqKPXkOIuzTZgcaEBRakqHhoiNyhR4N5EDWD3hfFhjRev7uvB58ftqOn0wO0f2QflJuHBoKrZjk8ONuEPe5uwq9kBH4cywr08C4d11FgFFi2unp4mxde3LynCjIIUmHSipn4siAr6XIbsgQaNEqtLzVhcZISFiy6kmzT4YiIwaMU5a7j+jBOv7u/BB4f7cLTdI81PD7fjKq9A422HPyRR/2FPM/a29YvilHOh5pNRG2rpMduowY0V2fjW1dNw/cICpBg0Ihs+zgxrXuYVmfD1Siu+VmwkM0WuZqIJnOFOplNiv82Pn+/pxA8/qsWWk+3o51MzLwLH5z1OL5757BRe2tOIEza3WK75ZaivaMgVL9Up8KNrpuGptWVYNiNb2lDhS0ZGMA4M2xt5dJ1TYMCjSzPwxEKKj7i6KhEFTp0tRJ/VGRzAic4g/mlDL57f2YWqDhLtBTh4xoa/feWAdMJmOw0CIdFbz4fCFZ5puWlGBv7l4WW4cVERcq0GqT+JlpoYRmRqzGTVKvON+MbCdNw724ICs1KKoRImyRaFel2YROoMkcD7gnjjcC9+v71DWkLqojicxzPe8XXDkTY8v6EaG6u60OoKwMdtIXpsBC6kp2u6VYc75+XiiWvLsLw8A9mpfMDjJG7wkYSM2I80aRWSi/7QgjTcVGrEjBQljNyhh4lL4w7+TOymK2U40u3DW0f78Mq+LmyqcuBMlwfbq7rx+rZ6fHioBX3+EMJiuisCdQMF9QX27OZkG3Hb3Dzct2IqVlXmwkx9R+QXJ55LanI+U3vBFDO+tSAV95WbUEYWXEPWW5Zg+v4zGgU6fANYX+PEf29qwR8P9ODZjVXYWNOJTp4yi8MFNeMC3X/OeadTLD0/34xvr5yCx68swcLSzMjrgklhVONpWV4K7lyaiweXZKNYp4Ca3dJEFbhKhj76bDs6vfjpti6sawmhI0DNxtZdECEQRr5BjTsrs/CPt1bg9qVTUZBhGnxRMFmMStycFMmzqHHtDDP+ek0eKlPVMLHAOd5KQPjAhSD56x5yUQIaPcLGDMCQGsk7JDP8+V0BLCI3/NEVRXjkmlLMLkqFSa+GXAx+k86oIyENxZr5KWqsIYE/sSIbs3N10hRvogpcisU5tlYoAbWGGsAI6Engcq7PTaKOzLeX8yyDibObKrPx6OoS3LKwEGW5FrEF0iRxbgFLtAx11OJm1CTwHLLgt8614i66FudpkcLLyBJxquzLKNWALgXQksiVJHZZEmSC+Z5SpzEp5ChN0ZLnlolHKLa+eTEJOz+F+oPIhscSlyVuhscLk0aORxek4S+XZWJxjgYWhQwKdtn4SmTk1Hx6K1lxC8XmWvqeO3cCWy26nwalHDPS9bh/Xi7+4+45WDM7B+lm+uyCmOOyxR1Fq1biqtIU/Jhi8LumGWHhai2eB090gTNaPcXgJHK25Oy2J6LA2Ruja0WBBd8ma/349TOk43s0dN8FscmYiZu7s0GjQFm2Ho+syMT9FRYUc7FLohW6XAiOdzj21hioEdLITVdFnksEWNSBMJTBAfzFyqn47vXluHpOHlIG9zZLYD8l7hkzcTO8HtekU2JWngH3zkvD18osKGWBT9CeZZNKVOAqHVlysuAqErqMvo9nx4VErafPNSvLgO9cXYL7lk3BkpIMZKboxIEAccCYipthgfPC+7lFJtxZkYqbSi0oMZEl4+xqEnjoksg5yaY1Ryw5J95kY97M4wvfJ7LYWToVlham4OuLC/Hda6efs/ZaCDseGLdexyP74mIzHlySjnsqU5CmkEPJvSYZBM6otYCeLDhfkpseHwKX0/3h9Fgq51CmZ+C7a0rxF9eVoTDdBLVY9RZXjPvdKs3S49Hlmfi7lenINnORIgs8SRTO2XN203WpgCIOBE7elZ4s9iyDCt9bXojvf20G1szNg17N900Qb4x7b+OkS5ZZjbsWZuCvl+fh2nwT0jle40RNMsDTZTxNZkwna05Cj1WB+0LIUMlxRUkqnry+HHevLMG0HLNkrYUXHp9MSE/jDpKXqsHNM8xSom1JEcWknGdNCgtOn5MFzYUuGorDdRZ61A++FgPwPeANFax63DAzC3cvKcI18/IwNdsEvUY5+CZBvHDuJokTakYKU5W4psyMmyutWJSrgZx3VWULngwaZ9hyS+LmZBsJfLKLXqjtleSKz7DqcMvcXNy7fCqursxFjtUgthiOM84VNXPZ5aejIdusxG3lRvzDinQU6pTQUueWnfNHJTxsxdUkbGNWROyTFIsrqMmNFB4VmbR4bFkhHrmqBKsrcpCVEkNeheCymJTh2axXY1V5Gt79djkWFWqhYeOVKHujjxQOZA0Uh5syIlNnEwV7SsEw0ujO31Bixe+/uRgPrinDlCyzWPCRYEyKuHkFi16lwFSrGj+6Oh+Pz7GizEjxXdRNTxbYYivU5KLzCjNy18d7hRm3LV2VmQZ8c3UJ/urm2agoskpLNIWwE49JETfDhouXjS4pNOKuuWm4fXYq5qSpJHcxaWJwhhtCoSEXnQtf6JLc9DEWGoc9JGqtUo6ri624f0khbl1UiMqpaTDqVKIoJUGZNHFH0alkmEMCv32eFXfMSMFUsuDawc6YNEgCZwtuoour2sZwCSmLmpqSd0pZQcJ+ZHkRbltciHJpieak337BOBITd5cFPiNbh7sXWnHbdBPy1QqokqVcNYokcLLavAGEhmvTdXR3LlPgJGxe8FFEbvfNpen4h7XluGHRFGkLJCHsxCdm7rCSOluBVY+/XpuPu+ekoFhP8ac3NPhqkqEhYfM2TryEdLSw59PvR7ZBhfuvnIof3j0Xi0ozpFNkhBueHMSMuLm7KRUypBqUeGBZJv7iikysnkIuarIl2RjJitPgxlNmvIRUWiM+QritgmEY5HLcMicb/3ZXJe5dNhUZFh1Za8WYh/OCWIFv7PlXzPlmbFWKM3RYOysFX5+fhuumGqDmLYSTaS5cgj4zi5oz6byEVE0DnXyYGm8StpE8oJkZBtw9LxePXTMda+fkoijdKLLhCU4oKKN7rIFOa4TRYJEeYzbwKkjT4voZKXhsUToW5ehgjh5jlFSQIDnu1pkjAo8uIf0y3CxkrTO0KizIN+OO+Xn41qpiaVOFVJPYAikZGIACapUeBhK22ZwKk8kSu+JWkAXPtqixpjwF31+WgcoMGpXYgiedwAfhHVelJaSDO65G/WtqDjlb7DBwRZEFj62YikdWl2B+aSZUooQ0aTDrI8c1ycnDlYVDUJEHF/N3X69W4JoZqfj7FVasKaQOzuJOVoFz0Qtn0XnfdF5pxrfPH4I5NIBvLMzDd9fOwHXz8pGdShZekFQEfS4StR9q5QB0pBmdUirrvnAwW13bgIK8rMHvJh+7y4f9zV58fNKOD47Y0EpuaNKerDlAZjroB7wOzE5V4Btzs3H1bIqts4wwkWue7AcC2L0D2NXox9/t86Hbw1sxD76QgDQ8eXGNxo3fZjFoUJahRrF5AB5Pf2QFTJIa8EjZqgYmisWnplsxb4oVJXl8IIAQtuAscSNuttwnmnpxsK4D3c4+hP1uEneSzoMzpGEVueb9IRUOtvpQ2+FGvzeEcLKGLIKvEPNuOf91vkAI20514Hcbq/Hh4XaAYgqo1ZD2Co/l3U3GG26cwABSKDy5t9KCexamYWaOQdqBNpmnvpLRLV81b7F0pl2IrgA/0nMxrwqPP4gtR1vwf9edwvo6G6ClO8VZ81AAcPfSGxyRr5MRzjmo5HBQk7x6zI5fb+rAZ8f60GpP0vZIYsI00AdDIfiDIYRCYcngxay4Q/THttlc+Hh/I/5jQzWOtDjgoT8cbJHo/5E3USf2O8m00xUK0hNJ6JJSW4SpTagFsKXVg1/t7cSvd3biYIsPAa7PFyQFcrlCErfP50cgEIRSpY5dcbd0OfH5kVY8v70eexrtsPtIvOdmx6UvqfNKAneRwPsjAr9wlJH4kDfTFQjjUJcPH5zqw+93d2HjKTt6XcKKJwNyJYViSjVUGg10BiOM5pTYEze7F3UdDnx+sBlv7WrAxlob/JKbcY6wz4XFzAL3kcBZ5GH6OlkFThY8QIFXXa8ffzjajed2deCjk32o6fEKK57gSO443WKZQkkC10Kr18WOuLnrBUnEdpcfr2yqxdPrqrH+VHckvh4uOSQJ3E/xN1lvn5sEzi56ksJNRe3lojv9QVU/fvBRE57f2432/iANkryJXuRtgsTCGwwgRCoaoFhbplCQJVfFjriDwTBaKMb+/Sen8O6eZtQ5vAAv+7wUWNQcf0sxeJK7oyxyjQLuEPD+QRv+67NW7G8JwOUPS96RILEIUbw9QDedhR0mgYfp65gQtycwgKNNdrzwRQ1e39eEBrcfAa6LvuQKNOq07Jaze+6x00Ui52quZIWaL0xt2OIJ4aM6O/59YxPeO9SN1j6/EHiiQaJWqtUUdyule86h7KSLm4V9pK4H7+9uIAvTgqpeDzwsUnbHR4PkorPAPZEkm48ew8ld7EI+EFrcQWyrd+Clgz1491APTrS4KE5L4oEvwZDJyR2ncIxnmfyBADw+7+SJmzXoCw7gUJ0N7+6uxwcHmnDS5kF4JDH2cPAPZwsepG7tdUTqsJPZUnFzUpv6wgPY2uLBKwd68A4J/HCTM1LVlsRNkygMkLUOkLVmYXt9Prg8kyRuLopz+0M40+PBrz48ild3NeCUnYTI+3pdrrDPg3ptkCw3X8mcRY8yGOYcsfnx+702/HxDO460uNHvCSIkFB7XyOQUa4fDJPAggnQFSOSTIm4HxdRbTrbh9v/ciE/JJe9l0Y3n2mOuYnP2kBWnWDzZ4cGT2rqXmnxdkwvffusMXt3dicYerxB4HCOXcYgVAkXcUA2EIKewdMLF3dHnxgcUW//ks9No7PfCRcKWlm6OpcH+MtISSR/FAXbARSJP5qkyhtqaa5BdJOYGZxDP7uvB8zs7sb3agV63iMPjkQHyTGUDQahJ0VKFdmCC3fL6Dgc2krA/3NuIvfW9CPNvZ0synsKOEl0DzcUuXq5mS/KpMobaPkj34AS56e+ftOM1isXXnepDiz1Arp2w4vGESkmKpj4+QIZLQeGoXjNB89yclW3pceKjA814Y1c9dteS9eS+MxgDThz0S9lqs7jFXHgEvgcqGapI0B+dduDVvZ1YT0KvJzed8yLJnqaIJzjm5ouP69JoNOMvbo7jOskVf3fHGfz35lqsq+9DJ29XPNqprrFAEjjF4TxVlszz4FEkgcvRQ4PwjiY3frOpFe8e7EZNpwfegBB4PMCijq7elsvlUCqV4y/uulY7Xv2iGj/9pBptdop7WdSTKewoPPfNCTa3bfAJAd8XD7nqp9wh/GJPD369tQPbqu1kwYWHE+uwsFnUfCm4/JS/HnxtzAmSxd5zuhMvflGD13Y3kVUIIciannBXfAjYgnOxCyfZAl5hxYkw3R4agmHzh7Guzomnt3Tgt5s60EBxuZ89LkFMwmJWqVTQarXSo/Sc9O8YwmWNvMHCoZpuvL2nER8ebUNVLwmH9x2PJWFLUGflZaIcf3vtQuBR+DaRBW/zhLCjxYM3jvTiV9s7caTdB7tX1KbHIixutVotxdr8OOaWm296vyeA4w19eJNi7I+OkLC5OIVz8zELdVTJRecFJxSDC4Gfhdx0Fwn9WK8fv9ndiTcO9WFPgxMdjoBYQhpjcMzNi0cYSdhjLW63L4iqFjteWF+F1w60oq6fHLx4OU2SvQppmowsuJRFF51XgqcqyevikOpXO1vxy82t2HDSji5npKpNtFJswBVpfr8fwWBQir+luHvwtcuGY+x9VZ345YfH8Mej7bDzlkixkDi7VAI0ILm6I3Piwv08C4ucest2ctOf2dWBFza1oKbNDh+FYILJhwXN1psF7vV64fGMQYUad3833eA3yA3/5YYabCaX3M4uQuTl+INd8iBZbndPpGyVvxZEIO+Gq9pO9QXwxmkH/u7Tdnx0vA/tPAsimFTYDWdrzZa7v78ffX19lyduLk5p73Xhvb2NeGN3A7bU9aDDN2ix49Bo/xkWuJ9ib2nJKAmc43DBnxNtTmqe6v4gPj/jxou7u/HhkV6cbuclpHE7pMc90TibiRayjFrcvJd4i82JDUfb8GuKsXef6UU/rw+OR1f8YvDWTdFEG2fVyWqJIJMYFDn3nvV1Try8rxsfHLZJAueEqliAMvFE57mj7rn0/eBrlwTfPN52+PNDrfiPj0/iaJsTTt7EkG94ojEQgszvg9LnhI6+VZG6ZaLvRuAkpE6BvZ0+vLDPhhe3deJ4U58kcDFdNrGcW6HGjNpyn27pw9vbz+DVTTWo7/MhwD8lEYXNBMKwIohV6TL8w8p0XJ2nR4aKPquYCjqLSo4mXxjv1Ljws83deOegDfXdIpSZSFjYUevNpaeXXH7Ku5PyeV3PbSVh72/BKRK2n/o57wKRkHiCyNIocE15Jr53fTnunJ+BJ1bk4JqpJqRx+CEEHoGagtOOXf4wdrT58LsDPXhlXw8ON1JII5gQ2FKzuLmAxWAwXNrCEd5gYX9VF57fUoc/HW3FyR43HOwGJKLF5pgxGMa8HCPuWViAb1wxFatmZGFqhg4rp5lw3/x0XF9uibyXBX6OO5S0UDfgufAe8nQOk5v+3sk+MgDd2ESPDm+YQrnB9wnGBbbY7JqzqC0Wy8jF3U/CPlZvw8tbavDSjgbU2zwRUSeasEmjvJlyikaJmekG3L+sCN++thTXVebCoJZJeSSzVo5rZ1rw0NIMLC40IJdiTg2/IgQeQeoXwEkbH4zQh99tbcf2mn60OfzSnnmC8YOnwdgdZ8s9oiIWTp4dJ2G/uqUWz+5uJmtNQzBXnSWYrlnYCvqsVpUCywot+Lc7ZuOBK6ejJHfQQn+JlVOMePPeKbhrmhE5egUU3G+FwCNwmEZhSwdZ8Y8b3Pj/3qvHR8fsaLH7pWIn0UpjD1ttrlJj95xd8xFly4/UdeO13Q1450Rn5OjcRIyv2Q2n+HpBppFi6qn4wQ0zsHJmNkx69eAbvoqc2sFqUOGJq7LxzflWVGZo6OfQC/yzBBHIivtJ5LWeEH66rQ2/2NyGndV2uLwBMQ6OMSxqdsVZ1FyhJs17D752QVy+IN463IrPTnehjw/iSzg3nHoYz82ThblhRjoeXDkFty4uRGWRFWadetgzrlUKOQqsOtwwOwV3zUzBokwSOLueouP+GT4z2ke9rMMVxCdVDvx+Vxc+PdqLbmdQsuKCsYHFrdPpJOvd29srLSIZUty1rX3YX9eDxmiMnUja5o5FuraQdb65Ihv3k8W+dm4uSvMsMA9hsc+FnRg1hSglmTqspTj87tmpWJithZoHDJFJP4vUd2Ro7g/iiwYXXj1ow9uHbDjd4ZWONxJcPixmn88Hp9MplZ52dXUNLe7dpzpoFCBhs4VLJKtNwtZTZ8s3a7CqNB0/uL6MhJ2PggyTJNZLRaNUoDzbgFvnWPHwPCtmmFUwcHsJfZ+Fuw+56N0k5o1Nbjyzsx1vH7bhcIsLdndQRDNjAMfdnFTjxSN8DdmTd9Z0w+bnWvFL7/CxjJJc5xIS9iOLC/CT22djaVkWLAY1jV+jH8DYhS9M0+L+pZn4PsXhZVZy68U02fkMCtxPbXWKrPhPtrRLcfjuun54AnzyiWir0SJVpFGczVlyzpjzbixDqvbjM33o9ATIag8+Ec+waaDYWkEu8y2zMvD3t8zCQ1dNQ0G6cfANY4NWpcD1FVb8eG0RbphppWeoRwuz9FXYsyGhb65x4v+sa8ELJPROh08qlBKMjnMFPuxUmN0XRCARRlMStJkeKlO1eGhRPh6/uhSrZmUjJ1VPbvjY7hLDfdaiV2JpkR7fqDDh3ula5KrkUHKfFRo/H+qMDmqTo70BvEIu+q9I4LvrneSmi9VllwoLmy+GM+bsog8p7jy9Crp4d8nJWqeSNZ2fa8adCwvwyBXF5IZnIsOig5JGufHCqpdjJQt8bjpuLrfAwHvI8UApBH4W7otKGfqpUY7ZAvjjMTveOtCDLdV2NPWK440uBamWfLA/c3KNY+8he/fibCNSeG47HtuY/mYZWewMLkopSsEdSwpx1xVTsZjia73mEg/1HyXpNIAsL0vDw8uysGSKASla+r3cYUWfPR9yd4Ik8npnCO8f78PLe7vwKT029HjFXm0jJGq5o675sPPcq0vTkc5uK1m/eENGsZvOG8JNM7Lwg5tm4YErp6E4+8LVZuOJQS1HZb4ev7x1Kllyo1TeKhMd9sKQwNtp8Puw3oX/3NaJ57e2w+YMSGdOC4aG57fZYkdXhg0bc1+9qATpnHBi9yleGpiF4w+j2KLFv9w1Cz+4fTbmFqdBQxZ8slBQ+2Ub5fjna3Pxw5VZKDaSxHnAFH32q3DcSL2yzRXEi0fsuOvVanxyygGXXzTWcLCwoxczpLjz0/S4YVYW5lC8KlVexTok7FyDCl+bmYnvrSnFLUuKMCXLBAO5w5czzTUWqEjhpeka3DbHiscXZ2B+qgpaadCMvC44B7pXvIS0m8Iq3iv959s78D97e3C6KyBq0y8CW+toQo2TacMm1HQqGa4ica+dmYXpqdqIVYxFC05/kpKucqsON1fk4aGVxbhtUT4KM81QxdDWymoSeFmmFjfNTsVdlWlYmKFFCrmiYqrsAlAcPsBz4tQ0Oxq5qq0bbx7qwdEmp9jKaYQM2/NLcsy4oTIXN87ORrZeFZnSiaWGpcFGz1YxVYc75uTh4dXTcM3cfGSnGgbfEFuwwIvSNLhjcRa+XpmCuWlqmHnEFXH4heG5RRq9j3a48eKBTry2rxuHGp3o7veJDRmHYVhx69RKzJ2WjvvJGt5XmQ0TBeAxkxCiQUZO4cI0iq//Zs00PH7tdMwqMEPP2yDFMBqy1oUpSty9KA33z7Vifroact41VnBhePCjq7U/iGcO9OKXX7Rj04kedNo9MelIxgoj8lmlxRG5FjxybTkeWV6IKTyV5JrE/bz5hrIY6G+4sTwT/3pnJW5cWCTNXfNKrXiA+6tBo5Kq2b61Mgs3lhgBB7WpsOAXhsdrnjKj27ulw4df7bLhpd0OHOsQhyJcjBEpgZNRPDfMyalvkNv70KqpmFdgGcz4TmBn5F9F1lpNjwtyTfjbG8vx3evKsHR6BlJMGknYLJp4gevR00xqLC8x46FlmZKbnqKmW8Jhj9D4V6F7y/v12WkAPNkXxFsne/H05hZ8frwXfWLxyVcYsZljzbAFn1WUituXTcHdiwswP4+LOomJ6Iw8iNBl1amwemoKHlgxBQ9fWYwVMzJhMWoG3xR/cEiZaVbhimlmPEoCXzvNhBwDeUbS5x18k+As3BHpclLbnLL58NGpXjy3uwubTtvRSN97AqLRoozKhy3LT8EdiwvxwLJClKQbYCGLqRzPzkiDB+9TlkUiXl5sxbdXFeP+VdNQnGWJGzd8KNgzSjGosLLMgicWpWP1FAPSdFwZOI5tGu+wyBUy9JL3+EFVP57f1YnPTthR000CF2vEJUatjPwME25fMgX/ftMMLM3Qw8wmaDz8IurgMl+YrJkK987NxT/cMAM3LZ0KM1lwKZGaQLDIl0+34MnF6bipxAQ5N6c0/Rh5XfAlBgUe1sixrsmNp7e14+XdnTjV6ZXGxWRn1OKWc7xIlnTVrBw8dXsFZhemRsQ9lgmhYBg6GoWvLDDhr66ehgeuKEY5eQ2Jzuw8I55ckY0frsqJPMEFRCKgHBoKGZs9IXxyqg/PbGzGhsOtUAWCMMS/YzdqRv3RedBklzjFoMH8knQ8vroY15ZnSIKUrsvpi/zfkruVrVXh5oosfGttGdbOy8O0bNOELfqYTAwahVTsckdFCv7X6mzkpHAMTi8IgV8c6pB81mizO4RdXT5s7QrDO8ALKBLMvbsELntc4+y0hQR+7axsPLyyGF+bk4cccplV/OJoOiNZfgv9zDmZBtxGbvhDq0tw9dx8FGWapTn3ZEGvlqMsQ4vHKAa/a3YaKknsFnJBhcCHgJrHS1d3CGgKyOHnJ+Jp+mSMGTOnJdWkxU3zCvCjW2bj2rJMaS24lMMeaWekt/He3ynkXs0nYT+wpABPXlcqVZvxJobD7USaiKiVMhSkqvHdpRl4oMKKOSR2FrhMCHxoklfP5zGmEYlWJcOsfDP+6f5FuG0GCZzc6hEtOOHsRygMLhi9Jt+E795QjntXTUNZXuLH1yOhyKrGfYsz8R2Kw1dlaSH3UdgjBC4YhjFPN6jIwmYYlXhg7Ux86+oSLMszAa4g+UvkK30588sd1EOvUXxdYtXhsaWF+MFdc7FsRjZS43juejxI0cmxtNiER1fmYE2BDtLK9HhYqSeYNGQD0cWfX6K6tgEFeVmD3106Xup4jZ0OHKzrwY6qLhxu7MVxmwfOfj+JmYTO89MGJZZkGVGea0HlFCtWlKSjNN8irb2e7CWasQjnKW3OIHbXOfD6vi7sbPWgna04rywT/BmlUgGzyQR9ilVaCokwtVGC0vBkRKMLFiyQHs9l3MTN8A4a/S4/GjqdOFjfg8MdTjgdvkjZKsfQRhWWk5hnkftdRCJPM/O+ZqKjDgU7Py4S9BcnbHj/WC+2NrrRzF4Rt5toOgkh7gjjKu4o/BsC1MD+C+xNzRv685prYakvDT7qaUe1A+8c6cXHNf3oogFTOiddNKMQ9yBjHnNfCO5zanLDjVqVdAbXuZdwwUeHQaPEmtlWfO/KbNxXYZEW00g5jAsO1YJkZELELRgfeEgsTtfhoaWZeHKBFXm84EQSuFC4QIg77tGp5SghgX9jUTq+PjsF5VYVBeb0gpgqS3qEuBMAjUqOinwj7plrxS1lKZiRro6454kbagpGgBB3AlFZYMR95J7fU2FFQYoa0mbOwoAnLULcCUZZtgEPL87Cj64qkg5EEEm25EWIO8HgJFu6QY6103X45c2FuC5fj1R+ciyX4griAiHuBIQPQMg0KnDNNBO+sTADV001IktDt1oIPKkQ4k5QeBWd1ajEVWUW3F6ZiquK9JiiV0L55fp+QcIixJ3gZJhI4NOMeHB+Km4qIQtOcbiK58GFwBMeIe4kwGrWYllZGr55ZS5uJqFn8VnhvApFkNAIcScBnE/TKOUoTFXj8VVZuHOWBdNNKuk0VEHiIsSdJPCiMa5mm56tx32L0nEPxeEVaepIkk2UqyYkQtxJRMSCKzCn0ITb51px5+xUzEhVQc0Ld4TAEw4h7iRlVp4B9y1Ox/0k8GKLClo27ULgCYUQdxKTl6LBYyuz8IOl6ShjF521LQSeMAhxJzE8F27WKbFmViq+OT8NK3N0AJ+1JQSeEAhxJzm8rVWmSY3rylPw8KIs3FhmjQhcLBmNeXgb+6EQ4hZIFrwwTYvrZ6bgoYXpuGqqCQaeC2d9C43HLHxW5FAIcQv+DC84uXqaAT++Ng+zc/TSWeHSyTFC4DEHz2BqhbgFl4JRK8eiQj1+QgK/q9SMXPpeLDiJPZwhIDiMeoW4BefBYRyvKpudo8N9C9JxR0UqplvIRPABCELjsQPdC+MwQbcQt+ArcJcxaeSYnavH7ZVW3DsnHUV6RWSHVSHwSccZBjSKARToh74ZQtyCi2LWKVCZZ8Cdc9PwjXlWFBpI4JxFF5n0ScVD4s43yrAoc+igW4hbMCQapQzlWVr8r7X5uK7YhKkGJfRSuergGwQTBjc5R0cGUu2iDCVWFwx9np4Qt2BEcBz+z7cU4PtXZGFBJnUqYcEnHM5rdoaAlRnANTkyFJoHX7gIQtyCEWPSKHHVDDMeWpiG64v0JG56kgUuND7ueKmNXXQtMAK3TlVjQY5aOnVmKIS4BSOGvfGcFA1WTjNJe6TfMNUAC5/WKiz4uOIha831BgtTgftLVVicp0KGUSEVHw2FELfgklCRmPNStbiq1IxHF6ZjZb4O6byFsjgrfExhp8hN/7joMpOyF6bL8PUSJW4s0SDfpJDCpOEQ4hZcMizwLLMWaytS8cTSDKzM0cMikmxjToCaVKcGVuXI8c0ZKtxaqkaeWQH1CM9jF+IWjArWMp/cetWMVDx1bQFun5sB+MjMCBd9TCCvG19LB367Qot/XWHA6qlaGDUqqd1HihC34LJg93BWjgYPzjXhqcUmTNcooGV9C41fMgYS9Cwz8OA0Jf7jCh3+drkBC3NUSNXKpXa+FGEzQtyCy4ar2Sry9LhnfibunZ+OfIsCSla3EPiQcEzN5YBT9MBSiqnvnqbCgzM1uJ3c7xV5KpSlKWEhYXPOcjQIcQvGBJNOhVkFFty1MB03lJpRlKIkcQuBfxmOWtzByFrsPAOwMEOO6wuUuGe6CveWqbG2WINZmSroVGSpB/+b0SLELRgzuJqtLFOD7y1Nww3TzbAaSOBiHlyCC1B4QoGPTpeT6goNMny9SImnZqtx32wtbizTodiqhF59uZI+ixC3YMzJTzPiqVV5+Kul2ZEnvNSlkzzR5iBr3R4AdBrg3+cp8X9X6vDwHB3m56ulc93GTtJnEeIWjDlyuQxZRiXurLDg/91ciIW5ahi54CJJBc6Z71vz5fivxSr89ko9rpumxTSKp80UT/M2V8PUoowaIW7BuMDZ3Smpatwyw4JvLc/B6gI9sjTUyxNY4PzJHGHAT1+woEsopr4qW47HyPV+eJYGt1E8vTxHiUyTAnqKqUdQh3JZCHELxo3I5osq3FqZhnvoWp6nRzYLPMF2duH9JDnz7aFHi4pEbZJhWaYcX5uiwH2lKjxQrsbyAhWyzQoS9Dgr+hyEuAXjCrucPJ2zttKK++enYXW+DkZ6XpYAibZoksxHl58+p1YNrM2S4eESBZ6oUOHhSg1WF2th0SmoHSZO1FGEuAUTglkjxxXTTXhocTpummqAxkumjk8ajVOB8xR1VyiSJEtVAnfnAE8vUuI783W4pVyHmdka6NXS9pKThhC3YEJgw2XUKjGnwIiHl2fi3jkpyOYFJwEWePwonBdydJGge31AgSqEJ0qAf1ygxLfmaLC0QIsiixKmwUTZJBjr8xDiFkwYvEQxxaDC/CIS+NIM3Dk7BdNTybqxGYwDfbOw5bIBlJsH8GipHN+fp8WDM7VYU6TBjAw1Usj91qrGL/t9qcgGiMGvz6O6tgEFeVmD3wkEY8/Bhn68daQXH5y2o9ZB5pBne8dAGEqlAmaTCfoUK+RcMRLm0ePS4UQZY1KQ10FjkEYTKT5ZmiHHjVPUyLWooBzvlPcwaLVa6XHBggXS47kIyy2YNOYVmfDgwjTcSxbcykknNt8xYME5UcZ/Rph0y2HzVKMMV2TI8P0ZSvz7Uh2enG9EoVU96cIeDiFuwaQyPUuPBxdY8Y9LTTDzERqcRR+doR0TOPvd6Y+sXl1ileEvyf3+q0olvr9EjzXTdMjmnRPiBOGWCyYdXyCEDocPH1e78f6Bbhzq8KCPRT7K4FWmInc5PRvpGhVUUlbrgl38PPgED94yWKcEVlhJ2FkKzMtSYlqqAhaNHAa6OGcQa7ZauOWCmEajUiAvVSdVs903Lw0r8vVIYWGPstiF42y9VjM4Nlz8Z7CDYKd/7EEgg+LpNdlyfHOmCo/O1ODWaWppLXW+RSnNU0vZ78h/FjcIcQtiAraKnKBaOysFt1WkYlmOBilKGeSXom9+r4KEqNUhheLh4arBOGTOIMM3N1OGW6cq8cRMNb43S4NrpmpQkqaWwoTJKD4ZK4RbLog5ehwe7Kh14Pe7erGvywsHBcK8VHI40ykboMHAaII6LR0ZFL5H4Q4eLWnn7ce4AlZDyk4la30VC7tMheJUleRBxBtDueVC3IKYI0xKdHhDONHuw/ObWrCh0Y02H8lbRcocwpIadFrozanQkMDlYfK1B+H56T5pdABKNSEsSlNgWZ4K83PVKLJQPM2LOOLQ7WbOFbeM2oblzBd/LcQtiElCJEinP4wTzS58cMSGdbV2nOgNRMTNwaSkRBKlUgE9idql0cOsVsOoVkFOrjlXvbGguQDOQL59oX4ASzKVmEsmfUaaEgVmhVTzzkUn8SjqKFFxz58/HyqVCoFAAMFgEBqNRohbELtwz/QEBnC0yYFtdXbsbnSi3hZEVX8IPhIzSMwsZK1GDZVOBx1n0Mjqc9abs2V6VRglZjlmpdBllWNhlgo5JgVSdCTqEW4PHOtExT1nzhxqDjV5PWHJcuv1eiFuQezjDYTQaXejus2DI61+7OjwoV1mQr9MAzdbZ3oPn1WtJ4vO5aEy+tqilmO6MYSlZK0rMlXINSlhNcjj2kpfiHPFzZabxc2XsNyCuCJMXdUfHEAnBdFH2wM41hXEGXsYvX6gxxdElk6BUoqhZ6UrMT9PjQwSs7QpQmROLCGJinvevHlQkBfDwg6FQsPH3NNLiga/EwgE8YaY5xYIEhQhboEgQRHiFggSEuD/BzMdJkX8cGYFAAAAAElFTkSuQmCC;" parent="1" vertex="1">
          <mxGeometry x="-51" y="215" width="51.46" height="50" as="geometry" />
        </mxCell>
        <mxCell id="i4tWGjphK10BlRA8H3oe-18" style="edgeStyle=orthogonalEdgeStyle;rounded=0;orthogonalLoop=1;jettySize=auto;html=1;entryX=0.5;entryY=0;entryDx=0;entryDy=0;" parent="1" source="i4tWGjphK10BlRA8H3oe-15" target="i4tWGjphK10BlRA8H3oe-17" edge="1">
          <mxGeometry relative="1" as="geometry">
            <mxPoint x="210" y="120" as="targetPoint" />
          </mxGeometry>
        </mxCell>
        <mxCell id="i4tWGjphK10BlRA8H3oe-15" value="" style="verticalLabelPosition=bottom;html=1;verticalAlign=top;align=center;strokeColor=none;fillColor=#00BEF2;shape=mxgraph.azure.github_code;pointerEvents=1;" parent="1" vertex="1">
          <mxGeometry x="-49.54000000000002" y="8" width="50" height="50" as="geometry" />
        </mxCell>
        <mxCell id="i4tWGjphK10BlRA8H3oe-16" style="edgeStyle=orthogonalEdgeStyle;rounded=0;orthogonalLoop=1;jettySize=auto;html=1;entryX=0.5;entryY=1;entryDx=0;entryDy=0;entryPerimeter=0;" parent="1" target="i4tWGjphK10BlRA8H3oe-15" edge="1">
          <mxGeometry relative="1" as="geometry">
            <mxPoint x="-25" y="200" as="sourcePoint" />
          </mxGeometry>
        </mxCell>
        <mxCell id="i4tWGjphK10BlRA8H3oe-17" value="" style="rounded=0;whiteSpace=wrap;html=1;fillColor=#dae8fc;gradientColor=#7ea6e0;strokeColor=#6c8ebf;" parent="1" vertex="1">
          <mxGeometry x="180" y="200" width="180" height="110" as="geometry" />
        </mxCell>
        <mxCell id="i4tWGjphK10BlRA8H3oe-19" value="" style="image;sketch=0;aspect=fixed;html=1;points=[];align=center;fontSize=12;image=img/lib/mscae/Docker.svg;" parent="1" vertex="1">
          <mxGeometry x="310" y="19" width="50" height="41" as="geometry" />
        </mxCell>
        <mxCell id="i4tWGjphK10BlRA8H3oe-20" style="edgeStyle=orthogonalEdgeStyle;rounded=0;orthogonalLoop=1;jettySize=auto;html=1;entryX=0.584;entryY=1.029;entryDx=0;entryDy=0;entryPerimeter=0;" parent="1" source="i4tWGjphK10BlRA8H3oe-17" target="i4tWGjphK10BlRA8H3oe-19" edge="1">
          <mxGeometry relative="1" as="geometry">
            <Array as="points">
              <mxPoint x="339" y="170" />
              <mxPoint x="339" y="170" />
            </Array>
          </mxGeometry>
        </mxCell>
        <mxCell id="i4tWGjphK10BlRA8H3oe-22" value="&lt;span style=&quot;text-wrap: wrap;&quot;&gt;&lt;b&gt;Workstation&lt;/b&gt;&lt;/span&gt;" style="text;html=1;align=center;verticalAlign=middle;resizable=0;points=[];autosize=1;strokeColor=none;fillColor=none;" parent="1" vertex="1">
          <mxGeometry x="205" y="215" width="90" height="30" as="geometry" />
        </mxCell>
        <mxCell id="i4tWGjphK10BlRA8H3oe-24" style="edgeStyle=orthogonalEdgeStyle;rounded=0;orthogonalLoop=1;jettySize=auto;html=1;" parent="1" source="i4tWGjphK10BlRA8H3oe-23" target="i4tWGjphK10BlRA8H3oe-1" edge="1">
          <mxGeometry relative="1" as="geometry">
            <Array as="points">
              <mxPoint x="420" y="235" />
              <mxPoint x="420" y="235" />
            </Array>
          </mxGeometry>
        </mxCell>
        <mxCell id="i4tWGjphK10BlRA8H3oe-23" value="&lt;b&gt;kubectl&lt;/b&gt;" style="ellipse;whiteSpace=wrap;html=1;fillColor=#d5e8d4;gradientColor=#97d077;strokeColor=#82b366;" parent="1" vertex="1">
          <mxGeometry x="295" y="215" width="65" height="40" as="geometry" />
        </mxCell>
        <mxCell id="i4tWGjphK10BlRA8H3oe-25" style="edgeStyle=orthogonalEdgeStyle;rounded=0;orthogonalLoop=1;jettySize=auto;html=1;entryX=0.5;entryY=0;entryDx=0;entryDy=0;entryPerimeter=0;" parent="1" source="i4tWGjphK10BlRA8H3oe-19" target="i4tWGjphK10BlRA8H3oe-2" edge="1">
          <mxGeometry relative="1" as="geometry" />
        </mxCell>
        <mxCell id="i4tWGjphK10BlRA8H3oe-27" value="&lt;b&gt;YAML&lt;/b&gt;" style="text;html=1;align=center;verticalAlign=middle;resizable=0;points=[];autosize=1;strokeColor=none;fillColor=none;" parent="1" vertex="1">
          <mxGeometry x="350" y="205" width="60" height="30" as="geometry" />
        </mxCell>
        <mxCell id="i4tWGjphK10BlRA8H3oe-34" value="&lt;b&gt;eksctl&lt;/b&gt;" style="ellipse;whiteSpace=wrap;html=1;fillColor=#d5e8d4;gradientColor=#97d077;strokeColor=#82b366;" parent="1" vertex="1">
          <mxGeometry x="295" y="265" width="65" height="40" as="geometry" />
        </mxCell>
        <mxCell id="i4tWGjphK10BlRA8H3oe-35" value="" style="shape=image;html=1;verticalAlign=top;verticalLabelPosition=bottom;labelBackgroundColor=#ffffff;imageAspect=0;aspect=fixed;image=https://cdn1.iconfinder.com/data/icons/unicons-line-vol-3/24/docker-128.png" parent="1" vertex="1">
          <mxGeometry x="217.5" y="240" width="60" height="60" as="geometry" />
        </mxCell>
        <mxCell id="i4tWGjphK10BlRA8H3oe-45" style="edgeStyle=orthogonalEdgeStyle;rounded=0;orthogonalLoop=1;jettySize=auto;html=1;" parent="1" source="i4tWGjphK10BlRA8H3oe-36" target="i4tWGjphK10BlRA8H3oe-44" edge="1">
          <mxGeometry relative="1" as="geometry" />
        </mxCell>
        <mxCell id="i4tWGjphK10BlRA8H3oe-36" value="" style="ellipse;whiteSpace=wrap;html=1;aspect=fixed;" parent="1" vertex="1">
          <mxGeometry x="167.5" y="470" width="220" height="220" as="geometry" />
        </mxCell>
        <mxCell id="i4tWGjphK10BlRA8H3oe-41" style="edgeStyle=orthogonalEdgeStyle;rounded=0;orthogonalLoop=1;jettySize=auto;html=1;" parent="1" source="i4tWGjphK10BlRA8H3oe-37" edge="1">
          <mxGeometry relative="1" as="geometry">
            <mxPoint x="220" y="620" as="targetPoint" />
          </mxGeometry>
        </mxCell>
        <mxCell id="i4tWGjphK10BlRA8H3oe-37" value="" style="shape=image;html=1;verticalAlign=top;verticalLabelPosition=bottom;labelBackgroundColor=#ffffff;imageAspect=0;aspect=fixed;image=https://cdn1.iconfinder.com/data/icons/unicons-line-vol-3/24/docker-128.png" parent="1" vertex="1">
          <mxGeometry x="190" y="530" width="60" height="60" as="geometry" />
        </mxCell>
        <mxCell id="i4tWGjphK10BlRA8H3oe-42" style="edgeStyle=orthogonalEdgeStyle;rounded=0;orthogonalLoop=1;jettySize=auto;html=1;" parent="1" source="i4tWGjphK10BlRA8H3oe-38" edge="1">
          <mxGeometry relative="1" as="geometry">
            <mxPoint x="330" y="620" as="targetPoint" />
          </mxGeometry>
        </mxCell>
        <mxCell id="i4tWGjphK10BlRA8H3oe-38" value="" style="shape=image;html=1;verticalAlign=top;verticalLabelPosition=bottom;labelBackgroundColor=#ffffff;imageAspect=0;aspect=fixed;image=https://cdn1.iconfinder.com/data/icons/unicons-line-vol-3/24/docker-128.png" parent="1" vertex="1">
          <mxGeometry x="300" y="530" width="60" height="60" as="geometry" />
        </mxCell>
        <mxCell id="i4tWGjphK10BlRA8H3oe-39" value="" style="endArrow=none;html=1;rounded=0;exitX=0.046;exitY=0.709;exitDx=0;exitDy=0;exitPerimeter=0;entryX=0.955;entryY=0.702;entryDx=0;entryDy=0;entryPerimeter=0;" parent="1" source="i4tWGjphK10BlRA8H3oe-36" target="i4tWGjphK10BlRA8H3oe-36" edge="1">
          <mxGeometry width="50" height="50" relative="1" as="geometry">
            <mxPoint x="300" y="490" as="sourcePoint" />
            <mxPoint x="350" y="440" as="targetPoint" />
          </mxGeometry>
        </mxCell>
        <mxCell id="i4tWGjphK10BlRA8H3oe-40" value="&lt;b&gt;N/W and Storage&lt;/b&gt;" style="text;html=1;align=center;verticalAlign=middle;resizable=0;points=[];autosize=1;strokeColor=none;fillColor=none;" parent="1" vertex="1">
          <mxGeometry x="220" y="640" width="120" height="30" as="geometry" />
        </mxCell>
        <mxCell id="i4tWGjphK10BlRA8H3oe-44" value="" style="outlineConnect=0;dashed=0;verticalLabelPosition=bottom;verticalAlign=top;align=center;html=1;shape=mxgraph.aws3.elasticsearch_service;fillColor=#F58534;gradientColor=none;" parent="1" vertex="1">
          <mxGeometry x="467.5" y="500" width="67.5" height="81" as="geometry" />
        </mxCell>
        <mxCell id="i4tWGjphK10BlRA8H3oe-46" value="&lt;b&gt;Log Storage&lt;/b&gt;" style="text;html=1;align=center;verticalAlign=middle;resizable=0;points=[];autosize=1;strokeColor=none;fillColor=none;" parent="1" vertex="1">
          <mxGeometry x="451.25" y="478" width="90" height="30" as="geometry" />
        </mxCell>
        <mxCell id="i4tWGjphK10BlRA8H3oe-47" value="&lt;b&gt;backend&lt;/b&gt;" style="text;html=1;align=center;verticalAlign=middle;resizable=0;points=[];autosize=1;strokeColor=none;fillColor=none;" parent="1" vertex="1">
          <mxGeometry x="180" y="508" width="70" height="30" as="geometry" />
        </mxCell>
        <mxCell id="i4tWGjphK10BlRA8H3oe-49" style="edgeStyle=orthogonalEdgeStyle;rounded=0;orthogonalLoop=1;jettySize=auto;html=1;" parent="1" source="i4tWGjphK10BlRA8H3oe-48" target="i4tWGjphK10BlRA8H3oe-37" edge="1">
          <mxGeometry relative="1" as="geometry" />
        </mxCell>
        <mxCell id="i4tWGjphK10BlRA8H3oe-48" value="" style="html=1;verticalLabelPosition=bottom;align=center;labelBackgroundColor=#ffffff;verticalAlign=top;strokeWidth=2;strokeColor=#0080F0;shadow=0;dashed=0;shape=mxgraph.ios7.icons.user;" parent="1" vertex="1">
          <mxGeometry x="-49.54" y="515" width="79.54" height="90" as="geometry" />
        </mxCell>
        <mxCell id="i4tWGjphK10BlRA8H3oe-50" value="&lt;b&gt;filebeat&lt;/b&gt;" style="text;html=1;align=center;verticalAlign=middle;resizable=0;points=[];autosize=1;strokeColor=none;fillColor=none;" parent="1" vertex="1">
          <mxGeometry x="290" y="508" width="70" height="30" as="geometry" />
        </mxCell>
        <mxCell id="i4tWGjphK10BlRA8H3oe-51" value="&lt;b&gt;sidecar&lt;/b&gt;" style="text;html=1;align=center;verticalAlign=middle;resizable=0;points=[];autosize=1;strokeColor=none;fillColor=none;" parent="1" vertex="1">
          <mxGeometry x="390" y="590" width="70" height="30" as="geometry" />
        </mxCell>
        <mxCell id="byAdHSO-YkekHcHn3zpb-1" value="&lt;b&gt;pull Dockerfiles&lt;/b&gt;&lt;div&gt;&lt;b&gt;YAMLS&lt;/b&gt;&lt;/div&gt;" style="text;html=1;align=center;verticalAlign=middle;resizable=0;points=[];autosize=1;strokeColor=none;fillColor=none;" parent="1" vertex="1">
          <mxGeometry x="155" y="123" width="110" height="40" as="geometry" />
        </mxCell>
        <mxCell id="byAdHSO-YkekHcHn3zpb-2" value="&lt;b&gt;push images&lt;/b&gt;" style="text;html=1;align=center;verticalAlign=middle;resizable=0;points=[];autosize=1;strokeColor=none;fillColor=none;" parent="1" vertex="1">
          <mxGeometry x="300" y="108" width="100" height="30" as="geometry" />
        </mxCell>
        <mxCell id="byAdHSO-YkekHcHn3zpb-3" value="&lt;b&gt;pull images into nodes&lt;/b&gt;" style="text;html=1;align=center;verticalAlign=middle;resizable=0;points=[];autosize=1;strokeColor=none;fillColor=none;" parent="1" vertex="1">
          <mxGeometry x="451.25" y="8" width="150" height="30" as="geometry" />
        </mxCell>
        <mxCell id="byAdHSO-YkekHcHn3zpb-6" value="" style="rounded=0;whiteSpace=wrap;html=1;" parent="1" vertex="1">
          <mxGeometry x="60" y="760" width="347.5" height="290" as="geometry" />
        </mxCell>
        <mxCell id="byAdHSO-YkekHcHn3zpb-14" style="edgeStyle=orthogonalEdgeStyle;rounded=0;orthogonalLoop=1;jettySize=auto;html=1;entryX=0.5;entryY=1;entryDx=0;entryDy=0;" parent="1" source="byAdHSO-YkekHcHn3zpb-7" target="byAdHSO-YkekHcHn3zpb-13" edge="1">
          <mxGeometry relative="1" as="geometry" />
        </mxCell>
        <mxCell id="byAdHSO-YkekHcHn3zpb-7" value="&lt;b&gt;Pod&lt;/b&gt;" style="ellipse;whiteSpace=wrap;html=1;aspect=fixed;" parent="1" vertex="1">
          <mxGeometry x="85" y="910" width="80" height="80" as="geometry" />
        </mxCell>
        <mxCell id="byAdHSO-YkekHcHn3zpb-10" value="&lt;b&gt;Kubernetes&lt;/b&gt;" style="text;html=1;align=center;verticalAlign=middle;resizable=0;points=[];autosize=1;strokeColor=none;fillColor=none;" parent="1" vertex="1">
          <mxGeometry x="202.5" y="770" width="90" height="30" as="geometry" />
        </mxCell>
        <mxCell id="byAdHSO-YkekHcHn3zpb-16" style="edgeStyle=orthogonalEdgeStyle;rounded=0;orthogonalLoop=1;jettySize=auto;html=1;entryX=0.5;entryY=1;entryDx=0;entryDy=0;" parent="1" source="byAdHSO-YkekHcHn3zpb-11" target="byAdHSO-YkekHcHn3zpb-15" edge="1">
          <mxGeometry relative="1" as="geometry" />
        </mxCell>
        <mxCell id="byAdHSO-YkekHcHn3zpb-11" value="&lt;b&gt;Pod&lt;/b&gt;" style="ellipse;whiteSpace=wrap;html=1;aspect=fixed;" parent="1" vertex="1">
          <mxGeometry x="197.5" y="910" width="80" height="80" as="geometry" />
        </mxCell>
        <mxCell id="byAdHSO-YkekHcHn3zpb-12" value="&lt;b&gt;Pod&lt;/b&gt;" style="ellipse;whiteSpace=wrap;html=1;aspect=fixed;" parent="1" vertex="1">
          <mxGeometry x="300" y="910" width="80" height="80" as="geometry" />
        </mxCell>
        <mxCell id="byAdHSO-YkekHcHn3zpb-13" value="&lt;b&gt;config map&lt;/b&gt;" style="rounded=0;whiteSpace=wrap;html=1;" parent="1" vertex="1">
          <mxGeometry x="90" y="810" width="70" height="40" as="geometry" />
        </mxCell>
        <mxCell id="byAdHSO-YkekHcHn3zpb-15" value="&lt;b&gt;Secrets&lt;/b&gt;" style="rounded=0;whiteSpace=wrap;html=1;" parent="1" vertex="1">
          <mxGeometry x="202.5" y="810" width="70" height="40" as="geometry" />
        </mxCell>
      </root>
    </mxGraphModel>
  </diagram>
</mxfile>
